# Blender v2.80 (sub 75) OBJ File: 'curios.blend'
# www.blender.org
mtllib fire_resistance_bracelet.mtl
o BRACELET_BASE_INFERNALIRON_Cube.025
v 0.375000 -0.031250 0.375000
v 0.375000 0.031250 0.375000
v 0.625000 -0.031250 0.375000
v 0.625000 0.031250 0.375000
v 0.375000 -0.031250 0.625000
v 0.375000 0.031250 0.625000
v 0.625000 -0.031250 0.625000
v 0.625000 0.031250 0.625000
v 0.625000 0.031250 0.656250
v 0.625000 -0.031250 0.656250
v 0.375000 -0.031250 0.656250
v 0.375000 0.031250 0.656250
v 0.625000 -0.031250 0.343750
v 0.375000 -0.031250 0.343750
v 0.375000 0.031250 0.343750
v 0.625000 0.031250 0.343750
v 0.656250 0.031250 0.375000
v 0.656250 -0.031250 0.375000
v 0.656250 -0.031250 0.625000
v 0.656250 0.031250 0.625000
v 0.343750 -0.031250 0.375000
v 0.343750 0.031250 0.375000
v 0.343750 0.031250 0.625000
v 0.343750 -0.031250 0.625000
vt 0.250000 0.625000
vt 0.250000 0.875000
vt 0.187500 0.875000
vt 0.187500 0.625000
vt 0.187500 0.625000
vt 0.187500 0.875000
vt 0.250000 0.875000
vt 0.250000 0.625000
vt 0.250000 0.937500
vt 0.250000 1.000000
vt 0.187500 1.000000
vt 0.187500 0.937500
vt 0.187500 0.875000
vt 0.187500 0.625000
vt 0.250000 0.625000
vt 0.250000 0.875000
vt 0.187500 0.687500
vt 0.187500 0.625000
vt 0.250000 0.625000
vt 0.250000 0.687500
vt 0.187500 0.562500
vt 0.250000 0.562500
vt 0.187500 0.625000
vt 0.250000 0.687500
vt 0.187500 0.687500
vt 0.187500 0.937500
vt 0.250000 0.937500
vt 0.250000 0.875000
vt 0.250000 0.625000
vt 0.187500 0.625000
vt 0.187500 0.875000
vt 0.250000 0.625000
vt 0.250000 0.875000
vt 0.187500 0.875000
vt 0.187500 0.625000
vt 0.250000 0.562500
vt 0.187500 0.687500
vt 0.250000 0.687500
vt 0.250000 0.937500
vt 0.187500 0.937500
vt 0.250000 0.875000
vt 0.250000 0.625000
vt 0.187500 0.875000
vt 0.250000 0.562500
vt 0.187500 0.562500
vt 0.187500 0.625000
vt 0.250000 0.562500
vt 0.187500 0.687500
vt 0.250000 0.687500
vt 0.187500 0.875000
vt 0.187500 0.625000
vt 0.250000 0.625000
vt 0.250000 0.875000
vt 0.250000 0.937500
vt 0.250000 0.937500
vt 0.187500 0.937500
vt 0.187500 0.687500
vt 0.250000 0.687500
vt 0.187500 0.875000
vt 0.187500 0.937500
vt 0.187500 0.875000
vt 0.250000 0.937500
vt 0.187500 0.937500
vt 0.187500 0.625000
vt 0.187500 0.875000
vt 0.250000 0.875000
vt 0.187500 0.937500
vt 0.250000 1.000000
vt 0.187500 1.000000
vt 0.250000 0.687500
vt 0.250000 0.562500
vt 0.187500 0.562500
vt 0.187500 0.812500
vt 0.250000 0.812500
vt 0.250000 0.562500
vt 0.187500 0.812500
vt 0.250000 0.812500
vn 0.0000 1.0000 0.0000
vn 0.0000 -1.0000 0.0000
vn 0.7071 0.0000 -0.7071
vn -0.7071 0.0000 -0.7071
vn 0.0000 0.0000 1.0000
vn 0.0000 0.0000 -1.0000
vn 1.0000 0.0000 0.0000
vn -1.0000 0.0000 0.0000
vn -0.7071 0.0000 0.7071
vn 0.7071 0.0000 0.7071
usemtl MAIN
s off
f 2/1/1 4/2/1 16/3/1 15/4/1
f 7/5/2 3/6/2 18/7/2 19/8/2
f 18/9/3 13/10/3 16/11/3 17/12/3
f 6/13/1 2/14/1 22/15/1 23/16/1
f 15/17/4 14/18/4 21/19/4 22/20/4
f 8/21/1 9/22/1 20/23/1
f 10/24/5 9/25/5 12/26/5 11/27/5
f 5/28/2 7/29/2 10/30/2 11/31/2
f 8/32/1 6/33/1 12/34/1 9/35/1
f 2/1/1 15/4/1 22/36/1
f 14/37/6 15/38/6 16/39/6 13/40/6
f 3/41/2 1/42/2 14/18/2 13/43/2
f 14/18/2 1/42/2 21/44/2
f 7/45/2 19/46/2 10/47/2
f 18/9/7 17/12/7 20/48/7 19/49/7
f 4/50/1 8/51/1 20/52/1 17/53/1
f 18/9/2 3/41/2 13/43/2
f 16/3/1 4/2/1 17/54/1
f 24/55/8 23/56/8 22/57/8 21/58/8
f 11/27/2 24/59/2 5/60/2
f 23/61/1 12/62/1 6/63/1
f 1/64/2 5/65/2 24/66/2 21/19/2
f 24/67/9 11/27/9 12/68/9 23/69/9
f 10/30/10 19/8/10 20/70/10 9/25/10
f 1/71/7 2/72/7 6/73/7 5/74/7
f 5/74/6 6/73/6 8/21/6 7/75/6
f 7/75/8 8/21/8 4/76/8 3/77/8
f 3/77/5 4/76/5 2/72/5 1/71/5
o BRACELET_DECO_EMBERGLOW_Cube.026
v 0.531250 -0.093750 0.687500
v 0.531250 0.093750 0.687500
v 0.468750 -0.093750 0.687500
v 0.468750 0.093750 0.687500
v 0.531250 -0.093750 0.625000
v 0.531250 0.093750 0.625000
v 0.468750 -0.093750 0.625000
v 0.468750 0.093750 0.625000
v 0.562500 -0.093750 0.656250
v 0.562500 0.093750 0.656250
v 0.562500 0.093750 0.625000
v 0.562500 -0.093750 0.625000
v 0.437500 0.093750 0.656250
v 0.437500 -0.093750 0.656250
v 0.437500 -0.093750 0.625000
v 0.437500 0.093750 0.625000
v 0.531250 0.125000 0.656250
v 0.468750 0.125000 0.656250
v 0.468750 0.125000 0.625000
v 0.531250 0.125000 0.625000
v 0.468750 -0.125000 0.656250
v 0.531250 -0.125000 0.656250
v 0.468750 -0.125000 0.625000
v 0.531250 -0.125000 0.625000
v 0.531250 -0.031250 0.687500
v 0.531250 0.031250 0.687500
v 0.468750 0.031250 0.687500
v 0.468750 -0.031250 0.687500
v 0.468750 0.031250 0.625000
v 0.468750 -0.031250 0.625000
v 0.531250 0.031250 0.625000
v 0.531250 -0.031250 0.625000
v 0.562500 -0.031250 0.656250
v 0.562500 0.031250 0.656250
v 0.562500 0.031250 0.625000
v 0.562500 -0.031250 0.625000
v 0.437500 0.031250 0.656250
v 0.437500 -0.031250 0.656250
v 0.437500 0.031250 0.625000
v 0.437500 -0.031250 0.625000
v 0.531250 -0.031250 0.703125
v 0.531250 0.031250 0.703125
v 0.468750 0.031250 0.703125
v 0.468750 -0.031250 0.703125
v 0.687500 -0.031250 0.562500
v 0.687500 0.031250 0.562500
v 0.625000 -0.031250 0.562500
v 0.625000 0.031250 0.562500
v 0.687500 -0.031250 0.500000
v 0.687500 0.031250 0.500000
v 0.625000 -0.031250 0.500000
v 0.625000 0.031250 0.500000
v 0.656250 -0.093750 0.531250
v 0.656250 0.218750 0.531250
v 0.375000 0.031250 0.687500
v 0.375000 -0.031250 0.687500
v 0.437500 0.031250 0.687500
v 0.437500 -0.031250 0.687500
v 0.375000 0.031250 0.625000
v 0.375000 -0.031250 0.625000
v 0.437500 0.031250 0.625000
v 0.437500 -0.031250 0.625000
v 0.406250 0.093750 0.656250
v 0.406250 -0.218750 0.656250
v 0.562500 0.031250 0.687500
v 0.562500 -0.031250 0.687500
v 0.625000 0.031250 0.687500
v 0.625000 -0.031250 0.687500
v 0.562500 0.031250 0.625000
v 0.562500 -0.031250 0.625000
v 0.625000 0.031250 0.625000
v 0.625000 -0.031250 0.625000
v 0.593750 0.093750 0.656250
v 0.593750 -0.218750 0.656250
v 0.375000 -0.031250 0.562500
v 0.375000 0.031250 0.562500
v 0.312500 -0.031250 0.562500
v 0.312500 0.031250 0.562500
v 0.375000 -0.031250 0.500000
v 0.375000 0.031250 0.500000
v 0.312500 -0.031250 0.500000
v 0.312500 0.031250 0.500000
v 0.343750 -0.093750 0.531250
v 0.343750 0.218750 0.531250
vt 0.562500 0.625000
vt 0.500000 0.562500
vt 0.500000 0.625000
vt 0.250000 0.875000
vt 0.250000 0.937500
vt 0.187500 0.937500
vt 0.187500 0.875000
vt 0.250000 0.687500
vt 0.250000 0.750000
vt 0.187500 0.750000
vt 0.187500 0.687500
vt 0.187500 0.750000
vt 0.187500 0.687500
vt 0.250000 0.687500
vt 0.250000 0.750000
vt 0.187500 0.812500
vt 0.250000 0.812500
vt 0.187500 0.875000
vt 0.250000 0.812500
vt 0.187500 0.812500
vt 0.250000 0.750000
vt 0.250000 0.687500
vt 0.250000 0.812500
vt 0.250000 0.875000
vt 0.187500 0.875000
vt 0.187500 0.812500
vt 0.250000 0.687500
vt 0.250000 0.625000
vt 0.187500 0.625000
vt 0.187500 0.687500
vt 0.250000 0.812500
vt 0.187500 0.812500
vt 0.250000 0.750000
vt 0.250000 0.937500
vt 0.187500 0.937500
vt 0.250000 1.000000
vt 0.187500 0.875000
vt 0.250000 0.875000
vt 0.250000 0.937500
vt 0.187500 0.937500
vt 0.187500 0.750000
vt 0.250000 0.687500
vt 0.187500 0.687500
vt 0.187500 0.625000
vt 0.250000 0.625000
vt 0.187500 0.562500
vt 0.250000 0.562500
vt 0.250000 0.625000
vt 0.187500 0.625000
vt 0.250000 0.562500
vt 0.250000 0.750000
vt 0.187500 0.750000
vt 0.187500 0.687500
vt 0.250000 0.687500
vt 0.187500 0.625000
vt 0.187500 0.562500
vt 0.187500 0.625000
vt 0.562500 0.812500
vt 0.562500 0.875000
vt 0.500000 0.875000
vt 0.500000 0.812500
vt 0.562500 0.750000
vt 0.500000 0.812500
vt 0.500000 0.750000
vt 0.250000 0.750000
vt 0.187500 0.750000
vt 0.250000 0.812500
vt 0.187500 0.812500
vt 0.187500 0.750000
vt 0.250000 0.875000
vt 0.187500 0.875000
vt 0.187500 0.687500
vt 0.250000 0.687500
vt 0.187500 0.687500
vt 0.562500 0.562500
vt 0.562500 0.625000
vt 0.500000 0.625000
vt 0.562500 0.687500
vt 0.500000 0.687500
vt 0.562500 0.625000
vt 0.562500 0.687500
vt 0.500000 0.687500
vt 0.500000 0.625000
vt 0.562500 0.750000
vt 0.500000 0.750000
vt 0.187500 0.687500
vt 0.250000 0.687500
vt 0.250000 0.750000
vt 0.187500 0.750000
vt 0.187500 0.687500
vt 0.187500 0.687500
vt 0.187500 0.750000
vt 0.250000 0.750000
vt 0.187500 0.812500
vt 0.250000 0.812500
vt 0.250000 0.750000
vt 0.250000 0.812500
vt 0.187500 0.812500
vt 0.187500 0.750000
vt 0.562500 0.812500
vt 0.562500 0.750000
vt 0.562500 0.687500
vt 0.500000 0.687500
vt 0.375000 0.687500
vt 0.375000 0.750000
vt 0.312500 0.750000
vt 0.312500 0.687500
vt 0.312500 0.687500
vt 0.312500 0.750000
vt 0.375000 0.750000
vt 0.375000 0.687500
vt 0.312500 0.750000
vt 0.312500 0.812500
vt 0.375000 0.812500
vt 0.375000 0.750000
vt 0.375000 0.625000
vt 0.312500 0.812500
vt 0.375000 0.812500
vt 0.375000 1.000000
vt 0.375000 0.812500
vt 0.312500 0.687500
vt 0.375000 0.750000
vt 0.312500 0.750000
vt 0.375000 0.687500
vt 0.312500 0.625000
vt 0.312500 0.812500
vt 0.312500 1.000000
vt 0.375000 0.687500
vt 0.375000 0.750000
vt 0.312500 0.750000
vt 0.312500 0.687500
vt 0.375000 0.750000
vt 0.375000 0.812500
vt 0.312500 0.812500
vt 0.312500 0.750000
vt 0.312500 0.750000
vt 0.312500 0.812500
vt 0.375000 0.812500
vt 0.375000 0.750000
vt 0.312500 0.687500
vt 0.375000 0.687500
vt 0.375000 0.625000
vt 0.375000 1.000000
vt 0.375000 0.812500
vt 0.312500 0.687500
vt 0.375000 0.687500
vt 0.312500 0.625000
vt 0.312500 0.812500
vt 0.312500 1.000000
vt 0.375000 0.687500
vt 0.375000 0.750000
vt 0.312500 0.750000
vt 0.312500 0.687500
vt 0.375000 0.750000
vt 0.375000 0.812500
vt 0.312500 0.812500
vt 0.312500 0.750000
vt 0.312500 0.750000
vt 0.312500 0.812500
vt 0.375000 0.812500
vt 0.375000 0.750000
vt 0.312500 0.687500
vt 0.375000 0.687500
vt 0.375000 0.625000
vt 0.375000 1.000000
vt 0.375000 0.812500
vt 0.312500 0.687500
vt 0.375000 0.687500
vt 0.312500 0.625000
vt 0.312500 0.812500
vt 0.312500 1.000000
vt 0.375000 0.687500
vt 0.375000 0.750000
vt 0.312500 0.750000
vt 0.312500 0.687500
vt 0.375000 0.750000
vt 0.375000 0.812500
vt 0.312500 0.812500
vt 0.312500 0.750000
vt 0.312500 0.687500
vt 0.312500 0.750000
vt 0.375000 0.750000
vt 0.375000 0.687500
vt 0.375000 0.625000
vt 0.375000 1.000000
vt 0.375000 0.812500
vt 0.312500 0.750000
vt 0.375000 0.750000
vt 0.312500 0.687500
vt 0.375000 0.687500
vt 0.312500 0.625000
vt 0.312500 0.812500
vt 0.375000 0.812500
vt 0.312500 1.000000
vt 0.312500 0.812500
vn -1.0000 0.0000 0.0000
vn -0.7071 0.0000 0.7071
vn 0.0000 0.0000 -1.0000
vn 0.7071 0.0000 0.7071
vn 0.5774 0.5774 0.5774
vn -0.5774 -0.5774 0.5774
vn -0.7071 0.7071 0.0000
vn -0.5774 0.5774 0.5774
vn 0.0000 0.7071 0.7071
vn 0.0000 -1.0000 0.0000
vn 0.7071 -0.7071 0.0000
vn 0.0000 -0.7071 0.7071
vn 0.5774 -0.5774 0.5774
vn 0.0000 0.2425 0.9701
vn 1.0000 0.0000 0.0000
vn -0.7071 -0.7071 0.0000
vn 0.7071 0.7071 0.0000
vn 0.0000 1.0000 0.0000
vn 0.0000 -0.2425 0.9701
vn 0.0000 0.0000 1.0000
vn 0.0000 -0.4472 -0.8944
vn -0.9864 0.1644 0.0000
vn 0.0000 0.1644 -0.9864
vn 0.8944 -0.4472 0.0000
vn -0.8944 -0.4472 0.0000
vn 0.0000 -0.4472 0.8944
vn 0.0000 0.1644 0.9864
vn 0.9864 0.1644 0.0000
vn 0.0000 0.4472 -0.8944
vn 0.9864 -0.1644 0.0000
vn 0.0000 -0.1644 -0.9864
vn -0.8944 0.4472 0.0000
vn 0.8944 0.4472 -0.0000
vn 0.0000 0.4472 0.8944
vn 0.0000 -0.1644 0.9864
vn -0.9864 -0.1644 0.0000
usemtl MAIN
s off
f 52/78/11 27/79/11 68/80/11
f 51/81/12 28/82/12 37/83/12 61/84/12
f 53/85/13 32/86/13 30/87/13 55/88/13
f 49/89/14 25/90/14 33/91/14 57/92/14
f 26/93/15 34/94/15 41/95/15
f 30/87/13 32/86/13 43/96/13 44/97/13
f 55/88/13 30/87/13 35/98/13 59/99/13
f 61/100/11 37/101/11 40/102/11 63/103/11
f 54/104/13 31/105/13 39/106/13 64/107/13
f 27/108/16 38/109/16 45/110/16
f 35/98/13 30/87/13 44/97/13
f 42/111/17 43/112/17 40/102/17 37/101/17
f 37/83/18 28/82/18 42/113/18
f 28/114/19 26/115/19 41/116/19 42/117/19
f 32/86/13 40/118/13 43/96/13
f 45/119/20 47/120/20 48/121/20 46/122/20
f 46/123/21 48/124/21 36/125/21 33/126/21
f 39/106/13 31/105/13 47/127/13
f 25/128/22 27/129/22 45/130/22 46/131/22
f 29/132/13 36/125/13 48/133/13
f 31/105/13 29/132/13 48/133/13 47/127/13
f 33/91/23 25/90/23 46/134/23
f 66/135/24 26/136/24 28/137/24 67/138/24
f 50/139/25 26/140/25 66/141/25
f 47/120/26 45/119/26 38/142/26 39/143/26
f 44/144/27 41/145/27 34/146/27 35/98/27
f 43/147/28 42/148/28 41/145/28 44/144/28
f 59/99/25 35/98/25 34/146/25 58/149/25
f 36/125/25 60/150/25 57/151/25 33/126/25
f 25/152/25 49/153/25 65/154/25
f 49/153/25 50/155/25 66/156/25 65/154/25
f 25/157/29 65/158/29 68/159/29 27/160/29
f 65/158/30 66/161/30 67/162/30 68/159/30
f 32/86/13 53/85/13 63/163/13 40/118/13
f 38/164/11 62/165/11 64/166/11 39/167/11
f 29/132/13 56/168/13 60/150/13 36/125/13
f 26/93/14 50/169/14 58/170/14 34/94/14
f 50/171/14 49/89/14 57/92/14 58/172/14
f 31/105/13 54/104/13 56/168/13 29/132/13
f 27/173/12 52/174/12 62/175/12 38/176/12
f 52/174/12 51/81/12 61/84/12 62/175/12
f 28/177/11 51/178/11 67/162/11
f 51/179/11 52/78/11 68/80/11 67/180/11
f 69/181/30 70/182/30 72/183/30 71/184/30
f 75/185/13 76/186/13 74/187/13 73/188/13
f 73/189/25 74/190/25 70/191/25 69/192/25
f 75/185/31 73/188/31 77/193/31
f 76/194/32 72/195/32 78/196/32
f 74/197/33 76/194/33 78/196/33
f 73/189/34 69/192/34 77/198/34
f 71/199/35 75/200/35 77/201/35
f 69/181/36 71/184/36 77/202/36
f 72/203/37 70/191/37 78/204/37
f 70/191/38 74/190/38 78/204/38
f 79/205/30 80/206/30 82/207/30 81/208/30
f 81/209/25 82/210/25 86/211/25 85/212/25
f 83/213/11 84/214/11 80/215/11 79/216/11
f 85/217/39 83/218/39 87/219/39
f 86/211/40 82/210/40 88/220/40
f 84/221/41 86/211/41 88/220/41
f 83/213/42 79/216/42 87/222/42
f 81/209/43 85/212/43 87/223/43
f 79/205/44 81/208/44 87/224/44
f 82/225/45 80/215/45 88/226/45
f 80/215/46 84/214/46 88/226/46
f 89/227/30 90/228/30 92/229/30 91/230/30
f 91/231/25 92/232/25 96/233/25 95/234/25
f 93/235/11 94/236/11 90/237/11 89/238/11
f 95/239/39 93/240/39 97/241/39
f 96/233/40 92/232/40 98/242/40
f 94/243/41 96/233/41 98/242/41
f 93/235/42 89/238/42 97/244/42
f 91/231/43 95/234/43 97/245/43
f 89/227/44 91/230/44 97/246/44
f 92/247/45 90/237/45 98/248/45
f 90/237/46 94/236/46 98/248/46
f 99/249/30 100/250/30 102/251/30 101/252/30
f 101/253/11 102/254/11 106/255/11 105/256/11
f 105/257/13 106/258/13 104/259/13 103/260/13
f 105/257/31 103/260/31 107/261/31
f 106/255/32 102/254/32 108/262/32
f 104/263/33 106/255/33 108/262/33
f 103/264/34 99/265/34 107/266/34
f 101/253/35 105/256/35 107/267/35
f 99/249/36 101/252/36 107/268/36
f 102/269/37 100/270/37 108/271/37
f 100/270/38 104/272/38 108/271/38
